<?xml version="1.0" encoding="utf-8"?>
<!-- Generator: Adobe Illustrator 18.1.1, SVG Export Plug-In . SVG Version: 6.00 Build 0)  -->
<!DOCTYPE svg PUBLIC "-//W3C//DTD SVG 1.1//EN" "http://www.w3.org/Graphics/SVG/1.1/DTD/svg11.dtd">
<svg version="1.1" id="Layer_1" xmlns="http://www.w3.org/2000/svg" xmlns:xlink="http://www.w3.org/1999/xlink" x="0px" y="0px"
	 viewBox="0 0 52.5 56.5" enable-background="new 0 0 52.5 56.5" xml:space="preserve">
<g>
	<g>
		<path fill="#25BAA2" d="M48.2,45.2l-18,10.1c-2.4,1.4-5.4,1.4-7.8,0l-18-10.1c-2.5-1.4-4.1-4.1-4.1-6.9v-20c0-2.8,1.6-5.5,4.1-6.9
			l18-10.1c2.4-1.4,5.4-1.4,7.8,0l18,10.1c2.5,1.4,4.1,4.1,4.1,6.9v20C52.3,41.1,50.7,43.7,48.2,45.2z"/>
		<path fill="#25BAA2" d="M48.2,45.2l-18,10.1c-2.4,1.4-5.4,1.4-7.8,0l-18-10.1c-2.5-1.4-4.1-4.1-4.1-6.9v-20c0-2.8,1.6-5.5,4.1-6.9
			l18-10.1c2.4-1.4,5.4-1.4,7.8,0l18,10.1c2.5,1.4,4.1,4.1,4.1,6.9v20C52.3,41.1,50.7,43.7,48.2,45.2z"/>
		
			<linearGradient id="SVGID_1_" gradientUnits="userSpaceOnUse" x1="2125.3821" y1="-263.3466" x2="2181.9189" y2="-263.3466" gradientTransform="matrix(4.489700e-11 -1 1 4.489700e-11 289.6123 2181.9189)">
			<stop  offset="0" style="stop-color:#FFFFFF;stop-opacity:0"/>
			<stop  offset="0.8625" style="stop-color:#FFFFFF;stop-opacity:0.8625"/>
			<stop  offset="1" style="stop-color:#FFFFFF"/>
		</linearGradient>
		<path opacity="0.12" fill="none" stroke="url(#SVGID_1_)" stroke-width="0.5312" stroke-miterlimit="10" d="M48.2,45.2l-18,10.1
			c-2.4,1.4-5.4,1.4-7.8,0l-18-10.1c-2.5-1.4-4.1-4.1-4.1-6.9v-20c0-2.8,1.6-5.5,4.1-6.9l18-10.1c2.4-1.4,5.4-1.4,7.8,0l18,10.1
			c2.5,1.4,4.1,4.1,4.1,6.9v20C52.3,41.1,50.7,43.7,48.2,45.2z"/>
		
			<linearGradient id="SVGID_2_" gradientUnits="userSpaceOnUse" x1="2125.3821" y1="-263.3466" x2="2181.9189" y2="-263.3466" gradientTransform="matrix(4.489700e-11 -1 1 4.489700e-11 289.6123 2181.9189)">
			<stop  offset="0" style="stop-color:#000000"/>
			<stop  offset="0.1375" style="stop-color:#000000;stop-opacity:0.8625"/>
			<stop  offset="1" style="stop-color:#000000;stop-opacity:0"/>
		</linearGradient>
		<path opacity="4.000000e-02" fill="none" stroke="url(#SVGID_2_)" stroke-width="0.5312" stroke-miterlimit="10" d="M48.2,45.2
			l-18,10.1c-2.4,1.4-5.4,1.4-7.8,0l-18-10.1c-2.5-1.4-4.1-4.1-4.1-6.9v-20c0-2.8,1.6-5.5,4.1-6.9l18-10.1c2.4-1.4,5.4-1.4,7.8,0
			l18,10.1c2.5,1.4,4.1,4.1,4.1,6.9v20C52.3,41.1,50.7,43.7,48.2,45.2z"/>
	</g>
	<path fill="#FFFFFF" d="M22.8,20.7h-3v3h-2v-3h-3v-2h3v-3h2v3h3V20.7z"/>
	<path fill="#FFFFFF" d="M36.8,28.1L26.1,38.9c-0.3,0.3-0.7,0.4-1.1,0.4c-0.4,0-0.8-0.1-1.1-0.4l-1.5-1.5c0.4-0.4,0.7-1,0.7-1.6
		s-0.2-1.2-0.7-1.6c-0.4-0.4-1-0.7-1.6-0.7c-0.6,0-1.2,0.2-1.6,0.7l-1.5-1.5c-0.3-0.3-0.4-0.7-0.4-1.1c0-0.4,0.1-0.8,0.4-1.1
		l10.8-10.8c0.3-0.3,0.7-0.4,1.1-0.4s0.8,0.1,1.1,0.4l1.5,1.5c-0.4,0.4-0.7,1-0.7,1.6c0,0.6,0.2,1.2,0.7,1.6c0.4,0.4,1,0.7,1.6,0.7
		c0.6,0,1.2-0.2,1.6-0.7l1.5,1.5c0.3,0.3,0.4,0.7,0.4,1.1C37.3,27.5,37.1,27.8,36.8,28.1z M26.3,35.7l7.3-7.3
		c0.2-0.1,0.2-0.3,0.2-0.5s-0.1-0.4-0.2-0.5L29.3,23c-0.1-0.1-0.3-0.2-0.5-0.2c-0.2,0-0.4,0.1-0.5,0.2l-7.3,7.3
		c-0.2,0.1-0.2,0.3-0.2,0.5s0.1,0.4,0.2,0.5l4.3,4.3c0.1,0.1,0.3,0.2,0.5,0.2C26,35.9,26.1,35.8,26.3,35.7z M28.8,24l3.8,3.8
		l-6.8,6.8L22,30.8L28.8,24z"/>
</g>
</svg>
