<?xml version="1.0" encoding="utf-8"?>
<!-- Generator: Adobe Illustrator 18.1.1, SVG Export Plug-In . SVG Version: 6.00 Build 0)  -->
<!DOCTYPE svg PUBLIC "-//W3C//DTD SVG 1.1//EN" "http://www.w3.org/Graphics/SVG/1.1/DTD/svg11.dtd">
<svg version="1.1" xmlns="http://www.w3.org/2000/svg" xmlns:xlink="http://www.w3.org/1999/xlink" x="0px" y="0px"
	 viewBox="0 0 56.6 60.9" enable-background="new 0 0 56.6 60.9" xml:space="preserve">
<g id="Floating_Hexagon" display="none">
</g>
<g id="Layer_26" display="none">
</g>
<g id="Plus_White" display="none">
</g>
<g id="Plus_Black" display="none">
</g>
<g id="Empty_Check" display="none">
</g>
<g id="Check" display="none">
</g>
<g id="Settings" display="none">
</g>
<g id="Vendors" display="none">
</g>
<g id="Contacts" display="none">
</g>
<g id="Comments" display="none">
</g>
<g id="Tasks" display="none">
</g>
<g id="Events" display="none">
</g>
<g id="Tile_Hex" display="none">
</g>
<g id="Back_Arrow_Green" display="none">
</g>
<g id="Tile_Arrow">
</g>
<g id="Task_Tile">
</g>
<g id="Contact_Tile">
</g>
<g id="Attachment_Tile">
</g>
<g id="Vendor_Tile">
	<path fill="#FAFAFA" d="M40.3,21.6v14.2c0,0.1,0,0.3-0.1,0.4c0,0.1-0.1,0.2-0.2,0.3c-0.1,0.1-0.2,0.1-0.2,0.2
		c-0.1,0-0.2,0.1-0.3,0.1c-0.2,0-0.3,0-0.3,0c-0.1,0-0.2,0-0.4,0c-0.2,0-0.3,0-0.3,0c0,1-0.3,1.8-1,2.5c-0.7,0.7-1.5,1-2.5,1
		c-1,0-1.8-0.3-2.5-1c-0.7-0.7-1-1.5-1-2.5h-5.3c0,1-0.3,1.8-1,2.5c-0.7,0.7-1.5,1-2.5,1c-1,0-1.8-0.3-2.5-1c-0.7-0.7-1-1.5-1-2.5
		h-0.9c0,0-0.1,0-0.3,0c-0.2,0-0.3,0-0.4,0c-0.1,0-0.2,0-0.3,0c-0.2,0-0.3,0-0.3-0.1c-0.1,0-0.1-0.1-0.2-0.2
		c-0.1-0.1-0.1-0.2-0.2-0.3c0-0.1-0.1-0.2-0.1-0.4c0-0.2,0.1-0.4,0.3-0.6c0.2-0.2,0.4-0.3,0.6-0.3v-4.4c0-0.1,0-0.2,0-0.5
		c0-0.3,0-0.4,0-0.5c0-0.1,0-0.3,0-0.5c0-0.2,0-0.4,0.1-0.5c0-0.1,0.1-0.3,0.2-0.4c0.1-0.2,0.2-0.3,0.3-0.4l2.8-2.8
		c0.2-0.2,0.4-0.3,0.7-0.4c0.3-0.1,0.6-0.2,0.8-0.2h2.2v-2.7c0-0.2,0.1-0.4,0.3-0.6c0.2-0.2,0.4-0.3,0.6-0.3h14.2
		c0.2,0,0.4,0.1,0.6,0.3C40.2,21.1,40.3,21.3,40.3,21.6z M19,29.6h5.3V26h-2.2c-0.1,0-0.2,0-0.3,0.1l-2.7,2.7C19,28.9,19,29,19,29.1
		V29.6z M23.8,37.9c0.4-0.4,0.5-0.8,0.5-1.2s-0.2-0.9-0.5-1.2c-0.4-0.4-0.8-0.5-1.3-0.5c-0.5,0-0.9,0.2-1.2,0.5
		c-0.4,0.4-0.5,0.8-0.5,1.2s0.2,0.9,0.5,1.2c0.4,0.4,0.8,0.5,1.2,0.5C23,38.4,23.4,38.3,23.8,37.9z M36.2,37.9
		c0.4-0.4,0.5-0.8,0.5-1.2s-0.2-0.9-0.5-1.2c-0.4-0.4-0.8-0.5-1.3-0.5c-0.5,0-0.9,0.2-1.2,0.5c-0.4,0.4-0.5,0.8-0.5,1.2
		s0.2,0.9,0.5,1.2c0.4,0.4,0.8,0.5,1.2,0.5C35.4,38.4,35.9,38.3,36.2,37.9z"/>
</g>
<g id="Scroll_Line" display="none">
</g>
<g id="Scroll_Bar" display="none">
</g>
<g id="Dot_Menu" display="none">
</g>
<g id="Hamburger_Menu" display="none">
</g>
<g id="Menu_Arrow" display="none">
</g>
<g id="Avatar_Circle" display="none">
</g>
<g id="White_Outline_Hex">
	<g>
		<path fill="#FFFFFF" d="M28.3,3.3c1,0,1.9,0.2,2.7,0.7l19.4,10.9c1.8,1,2.9,2.8,2.9,4.8v21.6c0,2-1.1,3.8-2.9,4.8L31,56.9
			c-0.8,0.5-1.8,0.7-2.7,0.7s-1.9-0.2-2.7-0.7L6.2,46c-1.8-1-2.9-2.8-2.9-4.8V19.7c0-2,1.1-3.8,2.9-4.8L25.5,4
			C26.4,3.5,27.3,3.3,28.3,3.3 M28.3,0.3c-1.5,0-2.9,0.4-4.2,1.1L4.7,12.2c-2.7,1.5-4.4,4.4-4.4,7.4v21.6c0,3.1,1.7,5.9,4.4,7.4
			l19.4,10.9c1.3,0.7,2.8,1.1,4.2,1.1s2.9-0.4,4.2-1.1l19.4-10.9c2.7-1.5,4.4-4.4,4.4-7.4V19.7c0-3.1-1.7-5.9-4.4-7.4L32.5,1.4
			C31.2,0.7,29.7,0.3,28.3,0.3L28.3,0.3z"/>
		
			<linearGradient id="SVGID_1_" gradientUnits="userSpaceOnUse" x1="843.3431" y1="1021.943" x2="904.2291" y2="1021.943" gradientTransform="matrix(4.489700e-11 -1 1 4.489700e-11 -993.6569 904.2291)">
			<stop  offset="0" style="stop-color:#000000"/>
			<stop  offset="0.1375" style="stop-color:#000000;stop-opacity:0.8625"/>
			<stop  offset="1" style="stop-color:#000000;stop-opacity:0"/>
		</linearGradient>
		<path opacity="4.000000e-02" fill="none" stroke="url(#SVGID_1_)" stroke-width="0.5721" stroke-miterlimit="10" d="M51.9,48.6
			L32.5,59.5c-2.6,1.5-5.8,1.5-8.4,0L4.7,48.6c-2.7-1.5-4.4-4.4-4.4-7.4V19.7c0-3.1,1.7-5.9,4.4-7.4L24.1,1.4c2.6-1.5,5.8-1.5,8.4,0
			l19.4,10.9c2.7,1.5,4.4,4.4,4.4,7.4v21.6C56.3,44.3,54.6,47.1,51.9,48.6z"/>
	</g>
</g>
<g id="Slider_Circle" display="none">
</g>
<g id="Slider_Circle_1_" display="none">
</g>
<g id="Radial_Outline" display="none">
</g>
<g id="Radial_Circle" display="none">
</g>
</svg>
