<?xml version="1.0" encoding="utf-8"?>
<!-- Generator: Adobe Illustrator 18.1.1, SVG Export Plug-In . SVG Version: 6.00 Build 0)  -->
<!DOCTYPE svg PUBLIC "-//W3C//DTD SVG 1.1//EN" "http://www.w3.org/Graphics/SVG/1.1/DTD/svg11.dtd">
<svg version="1.1" xmlns="http://www.w3.org/2000/svg" xmlns:xlink="http://www.w3.org/1999/xlink" x="0px" y="0px"
	 viewBox="0 0 40 34" enable-background="new 0 0 40 34" xml:space="preserve">
<g id="Grid">
</g>
<g id="Sign_Up_Section">
</g>
<g id="Bottom_Section">
</g>
<g id="Sign_Up_Fields">
</g>
<g id="Elements">
</g>
<g id="To_Plannr_Button">
</g>
<g id="TEXT">
</g>
<g id="Button_Hover">
</g>
<g id="Button">
</g>
<g id="Sign_Up_Top">
</g>
<g id="HEart_Icon">
	<path fill="#4273AD" d="M36.7,3.2c-2.1-2-4.9-3.2-7.9-3.2c-2.8,0-5.5,1-7.6,2.9L20,4l-1.3-1.1C16.6,1,14,0,11.2,0
		c-3,0-5.8,1.1-7.9,3.2C1.2,5.2,0,8,0,10.9c0,2.9,1.2,5.7,3.3,7.7l15.1,14.7c0.4,0.4,1,0.6,1.6,0.6c0.6,0,1.2-0.2,1.6-0.6l15.1-14.7
		c2.1-2.1,3.3-4.8,3.3-7.7C40,8,38.8,5.2,36.7,3.2z M10.7,6l-0.1,0c0,0-1.2,0-2.6,1.4c-1.4,1.4-1.4,2.7-1.4,2.8
		c0,0.4-0.2,0.8-0.5,1.1c-0.2,0.2-0.4,0.4-0.7,0.4c0,0,0.1,0,0.1,0v0l0,0v0c-1,0-1.4-0.7-1.4-1.4c0-0.1-0.1-2.4,2.1-4.6
		c2.2-2.2,4.3-2.2,4.4-2.2l0.1,0c0.3,0,0.6,0.1,0.8,0.4C11.9,4.1,12,4.4,12,4.8C11.9,5.4,11.4,6,10.7,6z"/>
</g>
<g id="Logo">
</g>
<g id="Extras" display="none">
</g>
</svg>
