<?xml version="1.0" encoding="utf-8"?>
<!-- Generator: Adobe Illustrator 18.1.1, SVG Export Plug-In . SVG Version: 6.00 Build 0)  -->
<!DOCTYPE svg PUBLIC "-//W3C//DTD SVG 1.1//EN" "http://www.w3.org/Graphics/SVG/1.1/DTD/svg11.dtd">
<svg version="1.1" id="Layer_1" xmlns="http://www.w3.org/2000/svg" xmlns:xlink="http://www.w3.org/1999/xlink" x="0px" y="0px"
	 viewBox="0 0 52 56" enable-background="new 0 0 52 56" xml:space="preserve">
<g>
	<path fill="#00BFA5" d="M47,44.6l-17.3,9.9c-2.3,1.3-5.2,1.3-7.5,0L5,44.6c-2.4-1.4-4-4-4-6.8V18.2c0-2.8,1.5-5.4,4-6.8l17.3-9.9
		c2.3-1.3,5.2-1.3,7.5,0L47,11.4c2.4,1.4,4,4,4,6.8v19.7C51,40.6,49.5,43.2,47,44.6z"/>
	<path fill="#00BFA5" d="M47,44.6l-17.3,9.9c-2.3,1.3-5.2,1.3-7.5,0L5,44.6c-2.4-1.4-4-4-4-6.8V18.2c0-2.8,1.5-5.4,4-6.8l17.3-9.9
		c2.3-1.3,5.2-1.3,7.5,0L47,11.4c2.4,1.4,4,4,4,6.8v19.7C51,40.6,49.5,43.2,47,44.6z"/>
	
		<linearGradient id="SVGID_1_" gradientUnits="userSpaceOnUse" x1="2122.5" y1="-412" x2="2178.5" y2="-412" gradientTransform="matrix(4.489700e-11 -1 1 4.489700e-11 437.5 2178.5)">
		<stop  offset="0" style="stop-color:#FFFFFF;stop-opacity:0"/>
		<stop  offset="0.8625" style="stop-color:#FFFFFF;stop-opacity:0.8625"/>
		<stop  offset="1" style="stop-color:#FFFFFF"/>
	</linearGradient>
	<path opacity="0.12" fill="none" stroke="url(#SVGID_1_)" stroke-miterlimit="10" d="M46.8,44.6l-17.2,9.9c-2.3,1.3-5.1,1.3-7.5,0
		L4.7,44.6c-2.4-1.4-4.2-4-4.2-6.8V18.2c0-2.8,1.8-5.4,4.2-6.8l17.4-9.9c2.3-1.3,5.3-1.3,7.6,0l17.1,9.9c2.4,1.4,3.7,4,3.7,6.8v19.7
		C50.5,40.6,49.2,43.2,46.8,44.6z"/>
	
		<linearGradient id="SVGID_2_" gradientUnits="userSpaceOnUse" x1="2122.5" y1="-412" x2="2178.5" y2="-412" gradientTransform="matrix(4.489700e-11 -1 1 4.489700e-11 437.5 2178.5)">
		<stop  offset="0" style="stop-color:#000000"/>
		<stop  offset="0.1375" style="stop-color:#000000;stop-opacity:0.8625"/>
		<stop  offset="1" style="stop-color:#000000;stop-opacity:0"/>
	</linearGradient>
	<path opacity="4.000000e-02" fill="none" stroke="url(#SVGID_2_)" stroke-miterlimit="10" d="M46.8,44.6l-17.2,9.9
		c-2.3,1.3-5.1,1.3-7.5,0L4.7,44.6c-2.4-1.4-4.2-4-4.2-6.8V18.2c0-2.8,1.8-5.4,4.2-6.8l17.4-9.9c2.3-1.3,5.3-1.3,7.6,0l17.1,9.9
		c2.4,1.4,3.7,4,3.7,6.8v19.7C50.5,40.6,49.2,43.2,46.8,44.6z"/>
</g>
<path fill="#FFFFFF" d="M33.9,26.9v2.1c0,0.3-0.1,0.6-0.3,0.8c-0.2,0.2-0.5,0.3-0.8,0.3h-4.6v4.6c0,0.3-0.1,0.6-0.3,0.8
	c-0.2,0.2-0.5,0.3-0.8,0.3h-2.1c-0.3,0-0.6-0.1-0.8-0.3c-0.2-0.2-0.3-0.5-0.3-0.8v-4.6h-4.6c-0.3,0-0.6-0.1-0.8-0.3
	c-0.2-0.2-0.3-0.5-0.3-0.8v-2.1c0-0.3,0.1-0.6,0.3-0.8c0.2-0.2,0.5-0.3,0.8-0.3h4.6v-4.6c0-0.3,0.1-0.6,0.3-0.8
	c0.2-0.2,0.5-0.3,0.8-0.3h2.1c0.3,0,0.6,0.1,0.8,0.3c0.2,0.2,0.3,0.5,0.3,0.8v4.6h4.6c0.3,0,0.6,0.1,0.8,0.3
	C33.8,26.4,33.9,26.6,33.9,26.9z"/>
</svg>
