<?xml version="1.0" encoding="utf-8"?>
<!-- Generator: Adobe Illustrator 18.1.1, SVG Export Plug-In . SVG Version: 6.00 Build 0)  -->
<!DOCTYPE svg PUBLIC "-//W3C//DTD SVG 1.1//EN" "http://www.w3.org/Graphics/SVG/1.1/DTD/svg11.dtd">
<svg version="1.1" id="Layer_1" xmlns="http://www.w3.org/2000/svg" xmlns:xlink="http://www.w3.org/1999/xlink" x="0px" y="0px"
	 viewBox="0 0 52 56" enable-background="new 0 0 52 56" xml:space="preserve">
<g>
	<path fill="#00BFA5" d="M47,44.6l-17.3,9.9c-2.3,1.3-5.2,1.3-7.5,0L5,44.6c-2.4-1.4-4-4-4-6.8V18.2c0-2.8,1.5-5.4,4-6.8l17.3-9.9
		c2.3-1.3,5.2-1.3,7.5,0L47,11.4c2.4,1.4,4,4,4,6.8v19.7C51,40.6,49.5,43.2,47,44.6z"/>
	<path fill="#00BFA5" d="M47,44.6l-17.3,9.9c-2.3,1.3-5.2,1.3-7.5,0L5,44.6c-2.4-1.4-4-4-4-6.8V18.2c0-2.8,1.5-5.4,4-6.8l17.3-9.9
		c2.3-1.3,5.2-1.3,7.5,0L47,11.4c2.4,1.4,4,4,4,6.8v19.7C51,40.6,49.5,43.2,47,44.6z"/>
	
		<linearGradient id="SVGID_1_" gradientUnits="userSpaceOnUse" x1="2050.5" y1="-340" x2="2106.5" y2="-340" gradientTransform="matrix(4.489700e-11 -1 1 4.489700e-11 365.5 2106.5)">
		<stop  offset="0" style="stop-color:#FFFFFF;stop-opacity:0"/>
		<stop  offset="0.8625" style="stop-color:#FFFFFF;stop-opacity:0.8625"/>
		<stop  offset="1" style="stop-color:#FFFFFF"/>
	</linearGradient>
	<path opacity="0.12" fill="none" stroke="url(#SVGID_1_)" stroke-miterlimit="10" d="M46.8,44.6l-17.2,9.9c-2.3,1.3-5.1,1.3-7.5,0
		L4.7,44.6c-2.4-1.4-4.2-4-4.2-6.8V18.2c0-2.8,1.8-5.4,4.2-6.8l17.4-9.9c2.3-1.3,5.3-1.3,7.6,0l17.1,9.9c2.4,1.4,3.7,4,3.7,6.8v19.7
		C50.5,40.6,49.2,43.2,46.8,44.6z"/>
	
		<linearGradient id="SVGID_2_" gradientUnits="userSpaceOnUse" x1="2050.5" y1="-340" x2="2106.5" y2="-340" gradientTransform="matrix(4.489700e-11 -1 1 4.489700e-11 365.5 2106.5)">
		<stop  offset="0" style="stop-color:#000000"/>
		<stop  offset="0.1375" style="stop-color:#000000;stop-opacity:0.8625"/>
		<stop  offset="1" style="stop-color:#000000;stop-opacity:0"/>
	</linearGradient>
	<path opacity="4.000000e-02" fill="none" stroke="url(#SVGID_2_)" stroke-miterlimit="10" d="M46.8,44.6l-17.2,9.9
		c-2.3,1.3-5.1,1.3-7.5,0L4.7,44.6c-2.4-1.4-4.2-4-4.2-6.8V18.2c0-2.8,1.8-5.4,4.2-6.8l17.4-9.9c2.3-1.3,5.3-1.3,7.6,0l17.1,9.9
		c2.4,1.4,3.7,4,3.7,6.8v19.7C50.5,40.6,49.2,43.2,46.8,44.6z"/>
</g>
<path fill="#FFFFFF" d="M29.7,23c0.7,0.9,1,1.8,1,2.9s-0.3,2-1,2.9s-1.7,1.6-2.9,2.1s-2.5,0.8-3.9,0.8c-0.6,0-1.3-0.1-2-0.2
	c-0.9,0.7-2,1.1-3.1,1.4c-0.3,0.1-0.6,0.1-1,0.2h0c-0.1,0-0.2,0-0.2-0.1c-0.1-0.1-0.1-0.1-0.1-0.2c0,0,0,0,0-0.1c0,0,0,0,0-0.1
	c0,0,0,0,0-0.1c0,0,0,0,0-0.1c0,0,0,0,0-0.1c0,0,0,0,0-0.1c0,0,0,0,0-0.1c0,0,0,0,0-0.1c0,0,0.1-0.1,0.3-0.3
	c0.1-0.1,0.2-0.3,0.3-0.3s0.1-0.2,0.3-0.3c0.1-0.1,0.2-0.3,0.3-0.4c0.1-0.1,0.2-0.3,0.2-0.5c-0.9-0.5-1.6-1.2-2.2-2S15,26.7,15,25.9
	c0-1,0.3-2,1-2.9c0.7-0.9,1.7-1.6,2.9-2.1c1.2-0.5,2.5-0.8,3.9-0.8c1.4,0,2.7,0.3,3.9,0.8C28,21.4,29,22.1,29.7,23z M35,28.7
	c0,0.9-0.3,1.7-0.8,2.5c-0.5,0.8-1.3,1.4-2.2,2c0.1,0.2,0.2,0.3,0.2,0.5c0.1,0.1,0.2,0.3,0.3,0.4c0.1,0.1,0.2,0.2,0.3,0.3
	s0.2,0.2,0.3,0.3c0.1,0.1,0.2,0.2,0.3,0.3c0,0,0,0,0,0s0,0,0,0.1c0,0,0,0,0,0.1c0,0,0,0,0,0.1c0,0,0,0,0,0.1c0,0,0,0,0,0.1
	c0,0,0,0,0,0.1c0,0,0,0.1,0,0.1c0,0.1-0.1,0.2-0.1,0.2s-0.2,0.1-0.2,0.1c-0.4-0.1-0.7-0.1-1-0.2c-1.1-0.3-2.2-0.8-3.1-1.4
	c-0.7,0.1-1.3,0.2-2,0.2c-2,0-3.8-0.5-5.3-1.5c0.4,0,0.8,0,1,0c1.2,0,2.3-0.2,3.4-0.5c1.1-0.3,2.1-0.8,2.9-1.4
	c0.9-0.7,1.6-1.5,2.1-2.4c0.5-0.9,0.7-1.8,0.7-2.8c0-0.6-0.1-1.1-0.3-1.7c1,0.5,1.7,1.2,2.3,2C34.7,26.9,35,27.8,35,28.7z"/>
<g>
	<polygon fill="#FFFFFF" points="32,29 32,26 29,26 29,23 32,23 32,20 35,20 35,23 38,23 38,26 35,26 35,29 	"/>
	<path fill="#00BEA4" d="M34,21v3h3v2h-3v3h-2v-3h-3v-2h3v-3H34 M35,20h-0.5h-2H31v0.5V23h-1.5H28v0.5v2V27h1.5H31v1.5V30h1.5h2H35
		v-1.5V27h2.5H38v-1.5v-2V23h-0.5H35v-2.5V20L35,20z"/>
</g>
</svg>
