<?xml version="1.0" encoding="utf-8"?>
<!-- Generator: Adobe Illustrator 18.1.1, SVG Export Plug-In . SVG Version: 6.00 Build 0)  -->
<!DOCTYPE svg PUBLIC "-//W3C//DTD SVG 1.1//EN" "http://www.w3.org/Graphics/SVG/1.1/DTD/svg11.dtd">
<svg version="1.1" id="Layer_1" xmlns="http://www.w3.org/2000/svg" xmlns:xlink="http://www.w3.org/1999/xlink" x="0px" y="0px"
	 viewBox="0 0 52 56" enable-background="new 0 0 52 56" xml:space="preserve">
<g>
	<path fill="#00BFA5" d="M47,44.6l-17.3,9.9c-2.3,1.3-5.2,1.3-7.5,0L5,44.6c-2.4-1.4-4-4-4-6.8V18.2c0-2.8,1.5-5.4,4-6.8l17.3-9.9
		c2.3-1.3,5.2-1.3,7.5,0L47,11.4c2.4,1.4,4,4,4,6.8v19.7C51,40.6,49.5,43.2,47,44.6z"/>
	<path fill="#00BFA5" d="M47,44.6l-17.3,9.9c-2.3,1.3-5.2,1.3-7.5,0L5,44.6c-2.4-1.4-4-4-4-6.8V18.2c0-2.8,1.5-5.4,4-6.8l17.3-9.9
		c2.3-1.3,5.2-1.3,7.5,0L47,11.4c2.4,1.4,4,4,4,6.8v19.7C51,40.6,49.5,43.2,47,44.6z"/>
	
		<linearGradient id="SVGID_1_" gradientUnits="userSpaceOnUse" x1="2202.5" y1="-188" x2="2258.5" y2="-188" gradientTransform="matrix(4.489700e-11 -1 1 4.489700e-11 213.5 2258.5)">
		<stop  offset="0" style="stop-color:#FFFFFF;stop-opacity:0"/>
		<stop  offset="0.8625" style="stop-color:#FFFFFF;stop-opacity:0.8625"/>
		<stop  offset="1" style="stop-color:#FFFFFF"/>
	</linearGradient>
	<path opacity="0.12" fill="none" stroke="url(#SVGID_1_)" stroke-miterlimit="10" d="M46.8,44.6l-17.2,9.9c-2.3,1.3-5.1,1.3-7.5,0
		L4.7,44.6c-2.4-1.4-4.2-4-4.2-6.8V18.2c0-2.8,1.8-5.4,4.2-6.8l17.4-9.9c2.3-1.3,5.3-1.3,7.6,0l17.1,9.9c2.4,1.4,3.7,4,3.7,6.8v19.7
		C50.5,40.6,49.2,43.2,46.8,44.6z"/>
	
		<linearGradient id="SVGID_2_" gradientUnits="userSpaceOnUse" x1="2202.5" y1="-188" x2="2258.5" y2="-188" gradientTransform="matrix(4.489700e-11 -1 1 4.489700e-11 213.5 2258.5)">
		<stop  offset="0" style="stop-color:#000000"/>
		<stop  offset="0.1375" style="stop-color:#000000;stop-opacity:0.8625"/>
		<stop  offset="1" style="stop-color:#000000;stop-opacity:0"/>
	</linearGradient>
	<path opacity="4.000000e-02" fill="none" stroke="url(#SVGID_2_)" stroke-miterlimit="10" d="M46.8,44.6l-17.2,9.9
		c-2.3,1.3-5.1,1.3-7.5,0L4.7,44.6c-2.4-1.4-4.2-4-4.2-6.8V18.2c0-2.8,1.8-5.4,4.2-6.8l17.4-9.9c2.3-1.3,5.3-1.3,7.6,0l17.1,9.9
		c2.4,1.4,3.7,4,3.7,6.8v19.7C50.5,40.6,49.2,43.2,46.8,44.6z"/>
</g>
<g>
	<path fill="#FFFFFF" d="M34.2,23.5c0,0.3-0.1,0.6-0.4,0.9l-9.3,9.3l-1.8,1.8c-0.2,0.2-0.5,0.4-0.9,0.4c-0.3,0-0.6-0.1-0.9-0.4
		l-1.8-1.8l-4.7-4.7c-0.2-0.2-0.4-0.5-0.4-0.9c0-0.3,0.1-0.6,0.4-0.9l1.8-1.8c0.2-0.2,0.5-0.4,0.9-0.4c0.3,0,0.6,0.1,0.9,0.4
		l3.8,3.8l8.5-8.5c0.2-0.2,0.5-0.4,0.9-0.4c0.3,0,0.6,0.1,0.9,0.4l1.8,1.8C34.1,22.9,34.2,23.2,34.2,23.5z"/>
</g>
<g>
	<polygon fill="#FFFFFF" points="29,36 29,33 26,33 26,30 29,30 29,27 32,27 32,30 35,30 35,33 32,33 32,36 	"/>
	<path fill="#00BEA4" d="M31,28v3h3v2h-3v3h-2v-3h-3v-2h3v-3H31 M32,27h-0.5h-2H28v0.5V30h-1.5H25v0.5v2V34h1.5H28v1.5V37h1.5h2H32
		v-1.5V34h2.5H35v-1.5v-2V30h-0.5H32v-2.5V27L32,27z"/>
</g>
</svg>
