<?xml version="1.0" encoding="utf-8"?>
<!-- Generator: Adobe Illustrator 18.1.1, SVG Export Plug-In . SVG Version: 6.00 Build 0)  -->
<!DOCTYPE svg PUBLIC "-//W3C//DTD SVG 1.1//EN" "http://www.w3.org/Graphics/SVG/1.1/DTD/svg11.dtd">
<svg version="1.1" id="Layer_1" xmlns="http://www.w3.org/2000/svg" xmlns:xlink="http://www.w3.org/1999/xlink" x="0px" y="0px"
	 viewBox="0 0 52 56" enable-background="new 0 0 52 56" xml:space="preserve">
<g>
	<path fill="#00BFA5" d="M47,44.6l-17.3,9.9c-2.3,1.3-5.2,1.3-7.5,0L5,44.6c-2.4-1.4-4-4-4-6.8V18.2c0-2.8,1.5-5.4,4-6.8l17.3-9.9
		c2.3-1.3,5.2-1.3,7.5,0L47,11.4c2.4,1.4,4,4,4,6.8v19.7C51,40.6,49.5,43.2,47,44.6z"/>
	<path fill="#00BFA5" d="M47,44.6l-17.3,9.9c-2.3,1.3-5.2,1.3-7.5,0L5,44.6c-2.4-1.4-4-4-4-6.8V18.2c0-2.8,1.5-5.4,4-6.8l17.3-9.9
		c2.3-1.3,5.2-1.3,7.5,0L47,11.4c2.4,1.4,4,4,4,6.8v19.7C51,40.6,49.5,43.2,47,44.6z"/>
	
		<linearGradient id="SVGID_1_" gradientUnits="userSpaceOnUse" x1="2054.5" y1="-192" x2="2110.5" y2="-192" gradientTransform="matrix(4.489700e-11 -1 1 4.489700e-11 217.5 2110.5)">
		<stop  offset="0" style="stop-color:#FFFFFF;stop-opacity:0"/>
		<stop  offset="0.8625" style="stop-color:#FFFFFF;stop-opacity:0.8625"/>
		<stop  offset="1" style="stop-color:#FFFFFF"/>
	</linearGradient>
	<path opacity="0.12" fill="none" stroke="url(#SVGID_1_)" stroke-miterlimit="10" d="M46.8,44.6l-17.2,9.9c-2.3,1.3-5.1,1.3-7.5,0
		L4.7,44.6c-2.4-1.4-4.2-4-4.2-6.8V18.2c0-2.8,1.8-5.4,4.2-6.8l17.4-9.9c2.3-1.3,5.3-1.3,7.6,0l17.1,9.9c2.4,1.4,3.7,4,3.7,6.8v19.7
		C50.5,40.6,49.2,43.2,46.8,44.6z"/>
	
		<linearGradient id="SVGID_2_" gradientUnits="userSpaceOnUse" x1="2054.5" y1="-192" x2="2110.5" y2="-192" gradientTransform="matrix(4.489700e-11 -1 1 4.489700e-11 217.5 2110.5)">
		<stop  offset="0" style="stop-color:#000000"/>
		<stop  offset="0.1375" style="stop-color:#000000;stop-opacity:0.8625"/>
		<stop  offset="1" style="stop-color:#000000;stop-opacity:0"/>
	</linearGradient>
	<path opacity="4.000000e-02" fill="none" stroke="url(#SVGID_2_)" stroke-miterlimit="10" d="M46.8,44.6l-17.2,9.9
		c-2.3,1.3-5.1,1.3-7.5,0L4.7,44.6c-2.4-1.4-4.2-4-4.2-6.8V18.2c0-2.8,1.8-5.4,4.2-6.8l17.4-9.9c2.3-1.3,5.3-1.3,7.6,0l17.1,9.9
		c2.4,1.4,3.7,4,3.7,6.8v19.7C50.5,40.6,49.2,43.2,46.8,44.6z"/>
</g>
<path fill="#FFFFFF" d="M33.8,33.5c0,0.9-0.3,1.6-0.9,2.2c-0.6,0.6-1.3,0.9-2.2,0.9c-1,0-1.9-0.4-2.6-1.1l-8.7-8.7
	c-0.8-0.9-1.3-1.9-1.3-3c0-1.2,0.4-2.2,1.2-3c0.8-0.8,1.8-1.2,3-1.2c1.2,0,2.2,0.4,3,1.3l6.8,6.8c0.1,0.1,0.1,0.2,0.1,0.2
	c0,0.1-0.1,0.3-0.3,0.5c-0.2,0.2-0.4,0.3-0.5,0.3c-0.1,0-0.2,0-0.3-0.1l-6.8-6.8c-0.6-0.6-1.3-0.9-2-0.9c-0.8,0-1.5,0.3-2,0.8
	c-0.5,0.6-0.8,1.2-0.8,2c0,0.8,0.3,1.5,0.8,2l8.7,8.7c0.5,0.5,1,0.7,1.6,0.7c0.5,0,0.9-0.2,1.2-0.5s0.5-0.7,0.5-1.2
	c0-0.6-0.2-1.1-0.7-1.6l-6.5-6.5c-0.2-0.2-0.4-0.3-0.7-0.3c-0.2,0-0.4,0.1-0.5,0.2c-0.1,0.1-0.2,0.3-0.2,0.5c0,0.2,0.1,0.5,0.3,0.7
	l4.6,4.6c0.1,0.1,0.1,0.2,0.1,0.2c0,0.1-0.1,0.3-0.3,0.5c-0.2,0.2-0.4,0.3-0.5,0.3c-0.1,0-0.2,0-0.2-0.1l-4.6-4.6
	c-0.5-0.5-0.7-1-0.7-1.7c0-0.6,0.2-1.1,0.6-1.6c0.4-0.4,0.9-0.6,1.6-0.6c0.7,0,1.2,0.2,1.7,0.7l6.5,6.5
	C33.4,31.6,33.8,32.4,33.8,33.5z"/>
<g>
	<polygon fill="#FFFFFF" points="21,38 21,35 18,35 18,32 21,32 21,29 24,29 24,32 27,32 27,35 24,35 24,38 	"/>
	<path fill="#00BEA4" d="M23,30v3h3v2h-3v3h-2v-3h-3v-2h3v-3H23 M24,29h-0.5h-2H20v0.5V32h-1.5H17v0.5v2V36h1.5H20v1.5V39h1.5h2H24
		v-1.5V36h2.5H27v-1.5v-2V32h-0.5H24v-2.5V29L24,29z"/>
</g>
</svg>
