<?xml version="1.0" encoding="utf-8"?>
<!-- Generator: Adobe Illustrator 18.1.1, SVG Export Plug-In . SVG Version: 6.00 Build 0)  -->
<!DOCTYPE svg PUBLIC "-//W3C//DTD SVG 1.1//EN" "http://www.w3.org/Graphics/SVG/1.1/DTD/svg11.dtd">
<svg version="1.1" id="Layer_1" xmlns="http://www.w3.org/2000/svg" xmlns:xlink="http://www.w3.org/1999/xlink" x="0px" y="0px"
	 viewBox="0 0 30.5 29.1" enable-background="new 0 0 30.5 29.1" xml:space="preserve">
<path id="linkedin_5_" fill-rule="evenodd" clip-rule="evenodd" fill="#4273AD" d="M23.7,29.1V18.5c0-2.2-0.6-4.3-3.2-4.3
	c-2.6,0-3.6,2.2-3.6,4.4v10.5h-6.8V9.7h6.8v2.6c1.8-2.3,3.3-3.2,6.2-3.2c2.8,0,7.4,1.3,7.4,9v11H23.7z M3.8,6.8C1.7,6.8,0,5.3,0,3.4
	C0,1.5,1.7,0,3.8,0c2.1,0,3.8,1.5,3.8,3.4C7.6,5.3,5.9,6.8,3.8,6.8z M7.2,29.1H0.4V9.7h6.8V29.1z"/>
</svg>
