<?xml version="1.0" encoding="utf-8"?>
<!-- Generator: Adobe Illustrator 18.0.0, SVG Export Plug-In . SVG Version: 6.00 Build 0)  -->
<!DOCTYPE svg PUBLIC "-//W3C//DTD SVG 1.1//EN" "http://www.w3.org/Graphics/SVG/1.1/DTD/svg11.dtd">
<svg version="1.1" id="Layer_1" xmlns="http://www.w3.org/2000/svg" xmlns:xlink="http://www.w3.org/1999/xlink" x="0px" y="0px"
	 viewBox="0 0 66 72" enable-background="new 0 0 66 72" xml:space="preserve">
<g>
	<g>
		<path fill="#FFFFFF" d="M25.3,33.5L21.7,30c-0.4-0.4-1-0.4-1.4,0s-0.4,1,0,1.4L22,33h-7c-0.6,0-1,0.4-1,1s0.4,1,1,1h7.4l-2,2
			c-0.4,0.4-0.4,1,0,1.4c0.2,0.2,0.5,0.3,0.7,0.3s0.5-0.1,0.7-0.3l3.5-3.5c0.2-0.2,0.3-0.4,0.3-0.7S25.5,33.7,25.3,33.5z"/>
		<path fill="#FFFFFF" d="M54,20.6C54,20.5,54,20.5,54,20.6L54,20.6c0-0.2,0-0.3,0-0.4c0-0.1,0-0.2,0-0.3c-0.3-2.1-1.6-3.8-3.7-3.8
			H31c-2.3,0-4,2.2-4,4.5v26.6c0,2.3,1.7,3.9,4,3.9h3v3.5c0,1.9,1.7,3.5,3.6,3.5c0.5,0,1.1-0.1,1.5-0.3l12.8-6
			c1.2-0.6,2.1-1.8,2.1-3.2L54,20.6z M52,48.5c0,0.6-0.1,1.1-0.7,1.3l-13,6C38.1,56,37.8,56,37.6,56c-0.8,0-1.6-0.6-1.6-1.5V26.3
			c0-1.2,0.9-2.4,2.1-2.8l12.1-4.3c0.2-0.1,0.4-0.1,0.6-0.1c0.2,0,0.3,0,0.5,0.1c0,0,0.1,0,0.1,0c0,0-0.2,0-0.2,0
			c0.5,0.2,0.7,0.7,0.7,1.4V48.5z"/>
		<circle fill="#FFFFFF" cx="40" cy="41.6" r="1.5"/>
	</g>
	<path fill="#FFFFFF" d="M33.6,2.3c1.9,0,3.7,0.5,5.3,1.4l20.3,11.8c3,1.7,4.9,5.1,4.9,8.9v23.7c0,3.9-1.8,7.2-4.8,8.9L38.8,68.9
		c-1.6,0.9-3.4,1.4-5.2,1.4c-1.8,0-3.6-0.5-5.2-1.4L7.5,57.1C4.2,55.2,2,51.7,2,48.2V24.5c0-3.5,2.2-7,5.5-8.9L28.3,3.7
		C29.9,2.8,31.7,2.3,33.6,2.3 M33.6,0.3c-2.2,0-4.3,0.6-6.3,1.7L6.6,13.8C2.7,16,0,20.1,0,24.5v23.7c0,4.4,2.7,8.4,6.5,10.6
		l20.9,11.8c1.9,1.1,4.1,1.7,6.2,1.7c2.1,0,4.3-0.6,6.2-1.7l20.4-11.8C64,56.6,66,52.6,66,48.2V24.5c0-4.4-2-8.4-5.9-10.6L39.9,2
		C37.9,0.9,35.8,0.3,33.6,0.3L33.6,0.3z"/>
</g>
</svg>
