<?xml version="1.0" encoding="utf-8"?>
<!-- Generator: Adobe Illustrator 18.0.0, SVG Export Plug-In . SVG Version: 6.00 Build 0)  -->
<!DOCTYPE svg PUBLIC "-//W3C//DTD SVG 1.1//EN" "http://www.w3.org/Graphics/SVG/1.1/DTD/svg11.dtd">
<svg version="1.1" id="Layer_1" xmlns="http://www.w3.org/2000/svg" xmlns:xlink="http://www.w3.org/1999/xlink" x="0px" y="0px"
	 viewBox="0 0 220 239.9" enable-background="new 0 0 220 239.9" xml:space="preserve">
<path opacity="0.4" fill="#ffffff" d="M197.5,44.6L129.2,5.5c-12.6-7.3-28.6-7.3-41.2,0L20.5,44.6C8,51.9,0,65.3,0,79.8v78.4
	c0,14.5,7.7,27.9,20.2,35.2l67.2,39.1c12.6,7.3,28.1,7.3,40.7,0l69.4-39.1c12.5-7.3,22.5-20.7,22.5-35.2V79.8
	C220,65.3,210.1,51.9,197.5,44.6z"/>
<path fill="#ffffff" d="M185.7,54.6l-59.1-33.8c-10.9-6.3-24.8-6.3-35.7,0L32.6,54.6C21.7,60.9,15,72.5,15,85.1v67.9
	c0,12.6,6.5,24.2,17.3,30.5l58.2,33.8c10.9,6.3,24.3,6.3,35.2,0l60-33.8c10.8-6.3,19.3-17.9,19.3-30.5V85.1
	C205,72.5,196.5,60.9,185.7,54.6z M151.2,127.8c0,12.7-10.3,23-23,23h-36l11.6,4.8l-32.6,20.6v-24.8V93.7c0-12.7,10.3-23,23-23h34
	c12.6,0,23,10.4,23,23V127.8z"/>
</svg>
