<?xml version="1.0" encoding="utf-8"?>
<!-- Generator: Adobe Illustrator 18.1.1, SVG Export Plug-In . SVG Version: 6.00 Build 0)  -->
<!DOCTYPE svg PUBLIC "-//W3C//DTD SVG 1.1//EN" "http://www.w3.org/Graphics/SVG/1.1/DTD/svg11.dtd">
<svg version="1.1" id="Layer_1" xmlns="http://www.w3.org/2000/svg" xmlns:xlink="http://www.w3.org/1999/xlink" x="0px" y="0px"
	 viewBox="0 0 145 45" enable-background="new 0 0 145 45" xml:space="preserve">
<path fill="#5B8CAA" d="M25,12.7h-7.2c-2.3,0-4.2,1.9-4.2,4.2v10.3v5.2c0,0.2,0.2,0.4,0.4,0.3l7.4-3.7c0.3-0.2,0.2-0.6-0.1-0.7
	l-2.7-0.9c-0.1,0-0.1-0.2,0-0.2H25c2.3,0,4.2-1.9,4.2-4.2v-6C29.2,14.6,27.3,12.7,25,12.7z"/>
<path fill="#5B8CAA" d="M37.5,8.7L24.1,1c-2.2-1.2-4.8-1.2-7,0L3.6,8.7c-2.2,1.2-3.5,3.6-3.5,6.1v15.4c0,2.5,1.3,4.8,3.5,6.1
	L17.1,44c2.2,1.2,4.8,1.2,7,0l13.5-7.7c2.2-1.2,3.5-3.6,3.5-6.1V14.8C41,12.3,39.7,10,37.5,8.7z M36.6,28.4c0,2.1-1.1,4-2.9,5
	l-10.3,6c-1.8,1-4,1-5.8,0l-10.2-6c-1.8-1-2.9-2.9-2.9-5V16.5c0-2.1,1.1-4,2.9-5l10.3-6c1.8-1,4-1,5.8,0l10.2,6c1.8,1,2.9,2.9,2.9,5
	V28.4z"/>
<g>
	<path fill="#5B8CAA" d="M47.3,12.5h8.1c5.5,0,9.2,3,9.2,7.6c0,4.6-3.7,7.6-9.2,7.6h-3.6v7.7h-4.5V12.5z M51.7,16.5v7.3h4
		c2.5,0,4.1-1.5,4.1-3.7c0-2.2-1.6-3.6-4.1-3.6H51.7z"/>
	<path fill="#5B8CAA" d="M66.9,10.9h4.3v24.5h-4.3V10.9z"/>
	<path fill="#5B8CAA" d="M87.2,33.5c-1.2,1.5-3,2.4-5.2,2.4c-4.5,0-8.2-3.7-8.2-9c0-5.2,3.5-9.1,8.2-9.1c2.2,0,4,0.8,5.2,2.2v-1.7
		h4.4v17.1h-4.4V33.5z M87.2,26.8c0-2.7-1.9-4.9-4.5-4.9c-2.6,0-4.6,2.2-4.6,4.9s1.9,5,4.6,5C85.3,31.8,87.2,29.6,87.2,26.8z"/>
	<path fill="#5B8CAA" d="M99.6,35.4h-4.3V18.3h4.3V20c1.1-1.4,2.7-2.2,4.8-2.2c4,0,6.5,2.8,6.5,7.2v10.3h-4.4v-9.7
		c0-2.3-1.4-3.8-3.5-3.8c-2.2,0-3.5,1.5-3.5,3.8V35.4z"/>
	<path fill="#5B8CAA" d="M118.8,35.4h-4.4V18.3h4.4V20c1.1-1.4,2.7-2.2,4.8-2.2c4,0,6.5,2.8,6.5,7.2v10.3h-4.4v-9.7
		c0-2.3-1.4-3.8-3.5-3.8c-2.2,0-3.5,1.5-3.5,3.8V35.4z"/>
	<path fill="#5B8CAA" d="M138,35.4h-4.4V18.3h4.4v1.9c1-1.4,2.4-2.4,4.2-2.4c1.1,0,2.1,0.3,2.7,0.9l-1.8,4.1
		c-0.6-0.5-1.4-0.8-2.2-0.8c-1.7,0-2.9,1.5-2.9,3.8V35.4z"/>
</g>
</svg>
