<?xml version="1.0" encoding="utf-8"?>
<!-- Generator: Adobe Illustrator 18.1.1, SVG Export Plug-In . SVG Version: 6.00 Build 0)  -->
<!DOCTYPE svg PUBLIC "-//W3C//DTD SVG 1.1//EN" "http://www.w3.org/Graphics/SVG/1.1/DTD/svg11.dtd">
<svg version="1.1" id="Layer_1" xmlns="http://www.w3.org/2000/svg" xmlns:xlink="http://www.w3.org/1999/xlink" x="0px" y="0px"
	 viewBox="0 0 35 28.5" enable-background="new 0 0 35 28.5" xml:space="preserve">
<path fill="#4273AD" d="M35,3.4c-1.3,0.6-2.7,1-4.1,1.1c1.5-0.9,2.6-2.3,3.2-4c-1.4,0.8-2.9,1.4-4.6,1.7C28.1,0.9,26.3,0,24.2,0
	c-4,0-7.2,3.2-7.2,7.2c0,0.6,0.1,1.1,0.2,1.6C11.3,8.5,6,5.7,2.4,1.3c-0.6,1.1-1,2.3-1,3.6c0,2.5,1.3,4.7,3.2,6
	c-1.2,0-2.3-0.4-3.2-0.9c0,0,0,0.1,0,0.1c0,3.5,2.5,6.4,5.8,7.1c-0.6,0.2-1.2,0.3-1.9,0.3c-0.5,0-0.9,0-1.3-0.1
	c0.9,2.9,3.6,4.9,6.7,5c-2.5,1.9-5.5,3.1-8.9,3.1c-0.6,0-1.1,0-1.7-0.1c3.2,2,6.9,3.2,11,3.2c13.2,0,20.4-11,20.4-20.5
	c0-0.3,0-0.6,0-0.9C32.8,6.1,34,4.8,35,3.4z"/>
</svg>
